<?xml version="1.0" standalone="no"?>
<!DOCTYPE svg PUBLIC "-//W3C//DTD SVG 20010904//EN"
 "http://www.w3.org/TR/2001/REC-SVG-20010904/DTD/svg10.dtd">
<svg version="1.0" xmlns="http://www.w3.org/2000/svg"
 width="626.000000pt" height="626.000000pt" viewBox="0 0 626.000000 626.000000"
 preserveAspectRatio="xMidYMid meet">
<metadata>
Created by potrace 1.11, written by Peter Selinger 2001-2013
</metadata>
<g transform="translate(0.000000,626.000000) scale(0.100000,-0.100000)"
fill="#000000" stroke="none">
<path d="M5225 6225 c-33 -7 -105 -27 -160 -45 -55 -17 -136 -42 -180 -55 -44
-13 -152 -46 -240 -74 -161 -49 -302 -92 -495 -151 -58 -18 -170 -52 -250 -77
-80 -24 -197 -60 -260 -79 -63 -20 -149 -46 -190 -59 -41 -13 -91 -28 -110
-34 -42 -11 -346 -103 -550 -167 -377 -116 -420 -134 -536 -225 -137 -108
-233 -246 -293 -419 l-25 -75 -3 -1468 c-2 -807 -6 -1467 -9 -1467 -3 0 -18 7
-34 15 -75 39 -200 59 -370 59 -247 0 -453 -46 -666 -150 -330 -161 -554 -403
-660 -714 -27 -78 -29 -96 -29 -230 0 -133 3 -152 28 -224 53 -151 143 -262
292 -360 185 -122 400 -174 669 -163 591 26 1079 373 1222 867 17 62 19 134
24 1375 5 1307 5 1310 26 1355 12 25 40 66 64 93 75 84 127 108 495 223 44 14
114 36 155 49 41 13 129 40 195 60 66 20 145 45 175 55 30 10 109 35 175 55
66 21 145 45 175 56 30 10 107 34 170 53 63 19 282 87 485 151 540 170 565
178 620 178 64 2 122 -28 147 -73 17 -33 18 -82 18 -1032 l0 -998 -53 24
c-101 45 -265 71 -432 70 -177 -1 -302 -21 -460 -71 -516 -166 -872 -577 -868
-1003 3 -322 189 -564 536 -694 234 -88 600 -88 875 -1 470 148 827 523 872
913 13 119 13 4022 0 4117 -37 257 -268 401 -545 340z"/>
</g>
</svg>
